C:\Users\r0593348\3dpredictsim\Results\Batchsim_tmt_linear\Pog_s1_tmt_aCst_d02_k500_ig24_pas_GRF.mot
nRows=30
nColumns=19

name C:\Users\r0593348\3dpredictsim\Results\Batchsim_tmt_linear\Pog_s1_tmt_aCst_d02_k500_ig24_pas_GRF.mot
datacolumns 19
datarows 30
range 0.5559455434 0.8783939585
endheader
time 	ground_force_vx	ground_force_vy	ground_force_vz	ground_force_px	ground_force_py	ground_force_pz	1_ground_force_vx	1_ground_force_vy	1_ground_force_vz	1_ground_force_px	1_ground_force_py	1_ground_force_pz	ground_torque_x	ground_torque_y	ground_torque_z	1_ground_torque_x	1_ground_torque_y	1_ground_torque_z
        0.5559455434	       94.5210446149	      474.3052008631	        5.3100639472	        0.3746521140	        0.0000000000	        0.0342133208	      -87.9587583294	       86.0865943687	      -45.1480267822	        0.8666162950	        0.0000000000	       -0.0370576968	        0.0000000000	        0.0000000000	        0.0000000000	        0.0000000000	        0.0000000000	        0.0000000000	
        0.5670644542	       76.1499933512	      389.9764642980	       11.2523764441	        0.3788035935	        0.0000000000	        0.0330623304	      -84.0623853227	      183.1688004980	      -82.8001203539	        0.8722888668	        0.0000000000	       -0.0351350673	        0.0000000000	        0.0000000000	        0.0000000000	        0.0000000000	        0.0000000000	        0.0000000000	
        0.5781833651	       55.5292732103	      301.2202444194	        8.6732811126	        0.3852913705	        0.0000000000	        0.0305832393	      -44.9579732878	      338.2330490280	      -19.5952710005	        0.8761098651	        0.0000000000	       -0.0331109141	        0.0000000000	        0.0000000000	        0.0000000000	        0.0000000000	        0.0000000000	        0.0000000000	
        0.5893022760	       28.5705008114	      200.5776352738	        6.6131015389	        0.3977776094	        0.0000000000	        0.0250608865	      -47.5986380319	      503.7367662408	        0.5950721380	        0.8808729064	        0.0000000000	       -0.0338436803	        0.0000000000	        0.0000000000	        0.0000000000	        0.0000000000	        0.0000000000	        0.0000000000	
        0.6004211868	        8.5489875151	      139.6512814490	       10.9565443777	        0.4114152458	        0.0000000000	        0.0180733887	      -83.6618983947	      684.6854526726	        8.2082248683	        0.8890584513	        0.0000000000	       -0.0363576080	        0.0000000000	        0.0000000000	        0.0000000000	        0.0000000000	        0.0000000000	        0.0000000000	
        0.6115400977	        1.1571604020	      110.6944744725	       12.0521704575	        0.4111978693	        0.0000000000	        0.0183944083	     -107.2181458249	      801.8802586113	       12.0076568868	        0.8948633789	        0.0000000000	       -0.0380358842	        0.0000000000	        0.0000000000	        0.0000000000	        0.0000000000	        0.0000000000	        0.0000000000	
        0.6226590086	       -2.3383710658	       72.5367033274	       10.9586409038	        0.4117232794	        0.0000000000	        0.0184385850	     -112.4673782540	      845.2348353435	       13.0537738886	        0.8988413776	        0.0000000000	       -0.0390534120	        0.0000000000	        0.0000000000	        0.0000000000	        0.0000000000	        0.0000000000	        0.0000000000	
        0.6337779194	       -8.0135826967	       30.2223701646	        5.9934122351	        0.4114887979	        0.0000000000	        0.0182763860	     -107.8181549241	      842.5254477003	       13.2652692208	        0.9019231294	        0.0000000000	       -0.0396552639	        0.0000000000	        0.0000000000	        0.0000000000	        0.0000000000	        0.0000000000	        0.0000000000	
        0.6448968303	        0.0839564076	       -0.0830366030	       -0.0018441614	        0.0000000000	        0.0000000000	        0.0000000000	      -98.5219927447	      823.6202038738	       13.7418605271	        0.9049832396	        0.0000000000	       -0.0399750906	        0.0000000000	        0.0000000000	        0.0000000000	        0.0000000000	        0.0000000000	        0.0000000000	
        0.6560157412	        0.0000795690	       -0.0000644110	        0.0000046180	        0.0000000000	        0.0000000000	        0.0000000000	      -86.2906747274	      794.3002957979	       14.5311020561	        0.9082203016	        0.0000000000	       -0.0401170883	        0.0000000000	        0.0000000000	        0.0000000000	        0.0000000000	        0.0000000000	        0.0000000000	
        0.6671346521	        0.0000397491	       -0.0000280395	        0.0000029646	        0.0000000000	        0.0000000000	        0.0000000000	      -74.4405260520	      759.3593860990	       14.8727183882	        0.9118046836	        0.0000000000	       -0.0401847527	        0.0000000000	        0.0000000000	        0.0000000000	        0.0000000000	        0.0000000000	        0.0000000000	
        0.6782535629	        0.0004388733	       -0.0002774607	        0.0000364849	        0.0000000000	        0.0000000000	        0.0000000000	      -64.6837703171	      727.8452303469	       15.0058647863	        0.9160967475	        0.0000000000	       -0.0401341195	        0.0000000000	        0.0000000000	        0.0000000000	        0.0000000000	        0.0000000000	        0.0000000000	
        0.6893724738	        0.0049698686	       -0.0028790799	        0.0004362038	        0.0000000000	        0.0000000000	        0.0000000000	      -55.2065492870	      697.8499100394	       15.5432242062	        0.9205368903	        0.0000000000	       -0.0400452786	        0.0000000000	        0.0000000000	        0.0000000000	        0.0000000000	        0.0000000000	        0.0000000000	
        0.7004913847	       -0.0269804996	        0.0145256969	       -0.0024626724	        0.0000000000	        0.0000000000	        0.0000000000	      -45.9199588904	      669.0574863422	       16.0701689975	        0.9248955533	        0.0000000000	       -0.0400056927	        0.0000000000	        0.0000000000	        0.0000000000	        0.0000000000	        0.0000000000	        0.0000000000	
        0.7116102955	       -0.0186745960	        0.0094487577	       -0.0017574951	        0.0000000000	        0.0000000000	        0.0000000000	      -37.9183339122	      643.6493768418	       16.6085010489	        0.9293038534	        0.0000000000	       -0.0400158465	        0.0000000000	        0.0000000000	        0.0000000000	        0.0000000000	        0.0000000000	        0.0000000000	
        0.7227292064	       -0.0133948409	        0.0064267538	       -0.0012929821	        0.0000000000	        0.0000000000	        0.0000000000	      -31.3049613838	      622.5892879753	       17.2897986859	        0.9337350301	        0.0000000000	       -0.0400526347	        0.0000000000	        0.0000000000	        0.0000000000	        0.0000000000	        0.0000000000	        0.0000000000	
        0.7338481173	       -0.0125642859	        0.0057596003	       -0.0012358739	        0.0000000000	        0.0000000000	        0.0000000000	      -25.6731771856	      606.0307766385	       17.8482205091	        0.9383140318	        0.0000000000	       -0.0401030369	        0.0000000000	        0.0000000000	        0.0000000000	        0.0000000000	        0.0000000000	        0.0000000000	
        0.7449670281	       -0.0158322364	        0.0069762976	       -0.0015772929	        0.0000000000	        0.0000000000	        0.0000000000	      -21.2474932733	      594.1384461542	       18.1032052857	        0.9432224476	        0.0000000000	       -0.0401415064	        0.0000000000	        0.0000000000	        0.0000000000	        0.0000000000	        0.0000000000	        0.0000000000	
        0.7560859390	       -0.0256506997	        0.0109205748	       -0.0025683760	        0.0000000000	        0.0000000000	        0.0000000000	      -18.1089550162	      586.5095043197	       18.1127890391	        0.9484388479	        0.0000000000	       -0.0401440286	        0.0000000000	        0.0000000000	        0.0000000000	        0.0000000000	        0.0000000000	        0.0000000000	
        0.7672048499	       -0.0495754305	        0.0204864112	       -0.0049565026	        0.0000000000	        0.0000000000	        0.0000000000	      -16.4032136040	      582.8324516749	       18.0923968430	        0.9539783161	        0.0000000000	       -0.0400931467	        0.0000000000	        0.0000000000	        0.0000000000	        0.0000000000	        0.0000000000	        0.0000000000	
        0.7783237607	       -0.1048455419	        0.0422299052	       -0.0104248143	        0.0000000000	        0.0000000000	        0.0000000000	      -15.4676771587	      581.7683732698	       17.9751601304	        0.9597035937	        0.0000000000	       -0.0399907393	        0.0000000000	        0.0000000000	        0.0000000000	        0.0000000000	        0.0000000000	        0.0000000000	
        0.7894426716	       -0.2234085983	        0.0880513525	       -0.0220088216	        0.0000000000	        0.0000000000	        0.0000000000	      -14.4994291406	      581.8909541675	       17.7973225327	        0.9655195173	        0.0000000000	       -0.0398475150	        0.0000000000	        0.0000000000	        0.0000000000	        0.0000000000	        0.0000000000	        0.0000000000	
        0.8005615825	       -0.4454956918	        0.1724726022	       -0.0433446824	        0.0000000000	        0.0000000000	        0.0000000000	      -13.2949953243	      582.0306562868	       17.5814959271	        0.9713522370	        0.0000000000	       -0.0396757545	        0.0000000000	        0.0000000000	        0.0000000000	        0.0000000000	        0.0000000000	        0.0000000000	
        0.8116804933	       -0.7885798694	        0.3009663605	       -0.0755918197	        0.0000000000	        0.0000000000	        0.0000000000	      -11.9099781735	      581.4697165748	       17.2685616506	        0.9771549265	        0.0000000000	       -0.0394874433	        0.0000000000	        0.0000000000	        0.0000000000	        0.0000000000	        0.0000000000	        0.0000000000	
        0.8227994042	       -1.2053202342	        0.4549626627	       -0.1133927338	        0.0000000000	        0.0000000000	        0.0000000000	      -10.0567321616	      579.5400534295	       16.9414938628	        0.9828807810	        0.0000000000	       -0.0392918596	        0.0000000000	        0.0000000000	        0.0000000000	        0.0000000000	        0.0000000000	        0.0000000000	
        0.8339183151	       -1.5847820476	        0.5932912824	       -0.1453558668	        0.0000000000	        0.0000000000	        0.0000000000	       -7.7262780841	      575.5570463117	       16.6080893613	        0.9884897901	        0.0000000000	       -0.0390948445	        0.0000000000	        0.0000000000	        0.0000000000	        0.0000000000	        0.0000000000	        0.0000000000	
        0.8450372259	       -1.8179813657	        0.6765189578	       -0.1608711842	        0.0000000000	        0.0000000000	        0.0000000000	       -4.6198201621	      569.9283720703	       15.8518562909	        0.9940706017	        0.0000000000	       -0.0388939372	        0.0000000000	        0.0000000000	        0.0000000000	        0.0000000000	        0.0000000000	        0.0000000000	
        0.8561561368	       -1.8600347452	        0.6889853237	       -0.1561037783	        0.0000000000	        0.0000000000	        0.0000000000	       -0.6799104430	      563.1530125850	       14.5008147742	        0.9997083347	        0.0000000000	       -0.0386801081	        0.0000000000	        0.0000000000	        0.0000000000	        0.0000000000	        0.0000000000	        0.0000000000	
        0.8672750477	       -1.7224409431	        0.6355649997	       -0.1336598282	        0.0000000000	        0.0000000000	        0.0000000000	        3.4687415838	      556.1866315761	       12.6992510083	        1.0054187348	        0.0000000000	       -0.0384461696	        0.0000000000	        0.0000000000	        0.0000000000	        0.0000000000	        0.0000000000	        0.0000000000	
        0.8783939585	       -1.4390415056	        0.5292866268	       -0.0998710959	        0.0000000000	        0.0000000000	        0.0000000000	        7.0003723826	      550.8280922382	       10.6049679499	        1.0111719196	        0.0000000000	       -0.0381871894	        0.0000000000	        0.0000000000	        0.0000000000	        0.0000000000	        0.0000000000	        0.0000000000	
